PathFileType	4	(X/Y/Z)	results/motion.trc
DataRate	CameraRate	NumFrames	NumMarkers	Units	OrigDataRate	OrigDataStartFrame	OrigNumFrames
13	13	5	20	mm	13	36	88
Frame#	Time	NUI_SKELETON_POSITION_HIP_CENTER	NUI_SKELETON_POSITION_HIP_RIGHT	NUI_SKELETON_POSITION_HIP_LEFT	NUI_SKELETON_POSITION_KNEE_RIGHT	NUI_SKELETON_POSITION_KNEE_LEFT	NUI_SKELETON_POSITION_ANKLE_RIGHT	NUI_SKELETON_POSITION_ANKLE_LEFT	NUI_SKELETON_POSITION_FOOT_RIGHT	NUI_SKELETON_POSITION_FOOT_LEFT	NUI_SKELETON_POSITION_SPINE	NUI_SKELETON_POSITION_SHOULDER_RIGHT	NUI_SKELETON_POSITION_SHOULDER_LEFT	NUI_SKELETON_POSITION_ELBOW_RIGHT	NUI_SKELETON_POSITION_ELBOW_LEFT	NUI_SKELETON_POSITION_WRIST_RIGHT	NUI_SKELETON_POSITION_WRIST_LEFT	NUI_SKELETON_POSITION_HAND_RIGHT	NUI_SKELETON_POSITION_HAND_LEFT	NUI_SKELETON_POSITION_SHOULDER_CENTER	NUI_SKELETON_POSITION_HEAD
X1	Y1	Z1	X2	Y2	Z2	X3	Y3	Z3	X4	Y4	Z4	X5	Y5	Z5	X6	Y6	Z6	X7	Y7	Z7	X8	Y8	Z8	X9	Y9	Z9	X10	Y10	Z10	X11	Y11	Z11	X12	Y12	Z12	X13	Y13	Z13	X14	Y14	Z14	X15	Y15	Z15	X16	Y16	Z16	X17	Y17	Z17	X18	Y18	Z18	X19	Y19	Z19	X20	Y20	Z20	
36	3.175000	2.905175	676.728964	-718.523026	71.078092	597.996891	-692.154408	-61.629564	604.544282	-760.844231	101.427257	157.017171	-771.128416	-125.300437	158.385962	-747.645378	120.634526	-176.636636	-738.765001	-148.157328	-169.408321	-790.463448	116.756886	-249.545753	-800.476313	-162.862986	-234.512985	-878.994942	-13.295427	750.999928	-695.213556	174.020201	1034.559250	-594.254017	-129.482925	1022.642851	-792.424202	299.922258	818.296313	-574.593306	-285.154223	885.818243	-1000.515103	463.579684	652.028203	-674.504042	-354.745030	776.625514	-1228.965998	500.482798	669.058084	-717.482090	-345.342189	789.252162	-1261.640906	0.056058	1135.751724	-709.482193	32.747239	1291.316986	-751.455069	
37	3.225000	1.185074	675.623775	-745.688438	69.565266	597.129464	-723.028183	-62.831938	603.189766	-786.091328	101.135254	156.563640	-811.724186	-125.420764	157.661587	-765.152693	122.029513	-177.989244	-785.396576	-146.848708	-170.896709	-800.274372	114.020258	-250.809073	-847.137690	-161.293149	-237.222075	-880.812645	-15.125081	749.974966	-721.973419	172.757447	1033.840418	-634.236336	-130.741268	1021.425724	-816.763639	306.926459	824.893296	-632.159472	-282.471150	877.409458	-992.422342	472.649485	682.548940	-770.797253	-366.903603	744.743705	-1160.104752	504.640698	699.369669	-816.749811	-360.110164	757.002532	-1194.683313	-2.544433	1134.746194	-735.229254	25.705621	1287.932873	-779.788017	
38	3.344000	0.072315	674.529433	-769.819975	68.525434	596.370280	-750.785112	-63.441098	601.983309	-808.265924	101.305902	156.681031	-846.439123	-125.466809	157.000393	-780.882597	123.274386	-179.087937	-824.842453	-145.415902	-172.264338	-807.281017	111.818552	-251.863658	-886.578560	-160.025895	-239.862740	-879.213333	-16.034260	749.016404	-746.231079	172.352254	1032.896757	-677.579403	-131.343678	1020.382643	-837.508917	315.497369	834.468424	-703.335285	-272.304833	866.333842	-961.122990	476.793796	713.751793	-880.326986	-371.994197	713.248491	-1065.789580	502.211094	733.318567	-931.075573	-372.454464	725.313306	-1103.893995	-3.883198	1133.986473	-759.397745	18.893540	1284.487247	-805.886507	
39	3.408000	-0.609383	673.450649	-791.065454	67.765474	595.724344	-775.192261	-63.767627	600.903809	-828.043699	101.801127	157.135248	-876.471043	-124.972507	156.747431	-794.099569	124.466360	-179.967821	-858.838797	-141.979843	-173.137128	-807.829380	110.030830	-252.759874	-920.658827	-158.916026	-242.468655	-866.531610	-16.085789	748.097658	-768.285990	172.014028	1030.707359	-724.372625	-129.780740	1020.302057	-853.413343	320.436269	846.176505	-792.879343	-246.878520	855.942190	-908.117294	468.213528	745.009661	-1008.008003	-356.246412	683.993757	-935.639143	483.307928	769.608021	-1060.176492	-363.864422	694.719791	-972.712517	-3.923565	1133.308887	-782.345533	13.524681	1281.203866	-830.247402	
40	3.527000	-1.184240	672.454596	-809.856176	67.144513	595.149517	-796.636105	-63.912943	599.961817	-845.724821	102.271706	157.577515	-902.993679	-124.256164	156.693906	-804.883480	125.507891	-180.675924	-888.879299	-137.408018	-173.650205	-802.515507	108.567178	-253.531635	-950.856924	-157.633588	-244.408250	-849.505901	-15.963748	747.251689	-787.924051	171.766818	1028.800726	-764.730215	-127.482355	1020.652056	-865.268230	324.227065	856.161892	-867.197037	-223.315671	846.598208	-855.638742	460.011750	769.893646	-1108.829141	-341.921806	660.475016	-826.889992	466.995448	798.276305	-1162.114620	-361.484140	668.066859	-895.987272	-3.745943	1132.726073	-802.664518	8.746922	1278.301477	-851.561308	
